<svg xmlns="http://www.w3.org/2000/svg" width="37.891" height="32.748" viewBox="0 0 37.891 32.748">
  <g id="Group_4624" data-name="Group 4624" transform="translate(-951 -263.271)">
    <g id="Group_4616" data-name="Group 4616" transform="translate(0.443)">
      <g id="logo-splash" transform="translate(950.557 263.271)">
        <path id="Path_479" data-name="Path 479" d="M817.633,943.478c-5.4.8-10.284-1.768-10.316-7.054-.035-5.173,4.562-7.578,10.316-7.054h1.441a2.178,2.178,0,0,0,2.177-2.178v-.174a2.178,2.178,0,0,0-2.177-2.178h-4.9a11.549,11.549,0,1,0,0,23.1h4.9a2.178,2.178,0,0,0,2.177-2.177v-.107a2.178,2.178,0,0,0-2.177-2.178Z" transform="translate(-792.865 -924.504)" fill="#969696"/>
        <path id="Path_480" data-name="Path 480" d="M715.671,941.7a11.639,11.639,0,0,0-11.66-11.548h-4.9a2.177,2.177,0,0,0-2.177,2.177v.174a2.177,2.177,0,0,0,2.177,2.177h1.441c5.753-.523,10.352,1.881,10.317,7.054a6.575,6.575,0,0,1-2.757,5.544c-2.276,1.666-7.836,1.491-7.836,1.491l-9.39.161c-4.541-.038-8.262-2.581-8.293-7.2,0-.024-.16-19.079-.16-19.079a2.156,2.156,0,0,0-4.312,0s-.335,19.032-.335,19.043a11.638,11.638,0,0,0,11.66,11.549s15.384-.021,15.782-.062h0A11.632,11.632,0,0,0,715.671,941.7Z" transform="translate(-677.78 -920.5)" fill="#969696"/>
      </g>
    </g>
  </g>
</svg>
